<svg width="217" height="65" viewBox="0 0 217 65" fill="none" xmlns="http://www.w3.org/2000/svg">
<g id="Logo">
<g id="Group">
<path id="Vector" d="M14.7313 0.5H0V7.50613L42.9225 17.7821L55.6762 60.6916H60.327V53.3343L49.9466 10.7853L14.7313 0.5Z" fill="#023E8A"/>
<path id="Vector_2" d="M23.0862 0.5L52.9779 7.76068L60.3269 32.8115V0.5H23.0862Z" fill="#023E8A"/>
<path id="Vector_3" d="M0 47.7557V60.6916H11.8655L9.71814 50.8531L0 47.7557Z" fill="#023E8A"/>
<path id="Vector_4" d="M0 34.7606V45.0646L12.7433 47.8336L16.8599 60.6915H24.3203L19.7778 40.8431L0 34.7606Z" fill="#023E8A"/>
<path id="Vector_5" d="M0 9.0033V20.0865L32.8659 27.8034L42.8006 60.6915H49.4852L39.8921 20.8066L0 9.0033Z" fill="#023E8A"/>
<path id="Vector_6" d="M0 21.8435V32.6348L22.8051 37.8205L29.8803 60.6915H36.87L29.8355 30.8259L0 21.8435Z" fill="#023E8A"/>
</g>
<g id="Group_2">
<g id="Group_3">
<path id="Vector_7" d="M87.0312 0.5H73.8098V3.16094H78.7876V16.2869H82.0544V3.16094H87.0312V0.5Z" fill="#023E8A"/>
<path id="Vector_8" d="M96.5618 9.12494C96.5618 6.15541 94.9477 4.66858 91.7173 4.66858C90.1771 4.66858 88.992 5.03119 88.1621 5.75643C87.3331 6.47959 86.8874 7.41055 86.8291 8.54828H89.8512C89.8803 8.01526 90.0542 7.59862 90.3739 7.2973C90.6916 6.99391 91.1404 6.84221 91.7173 6.84221C92.9472 6.84221 93.5616 7.50615 93.5616 8.83713V9.23611C92.6285 9.29742 91.6871 9.39924 90.7405 9.54678C89.1691 9.79822 88.0475 10.2201 87.3737 10.8113C86.6989 11.4025 86.3625 12.1776 86.3625 13.1387C86.3625 14.0998 86.7104 14.9455 87.406 15.5887C88.1027 16.2329 89.0358 16.5519 90.2063 16.5519C91.8215 16.5519 93.044 15.9627 93.873 14.7793H93.9177C93.9177 15.3549 93.9698 15.8578 94.0729 16.2869H96.8732C96.6649 15.5025 96.5618 14.4759 96.5618 13.2041V9.1239V9.12494ZM93.5616 11.5438C93.5616 12.5475 93.3471 13.2644 92.917 13.6946C92.4869 14.1226 91.8943 14.3356 91.1393 14.3356C90.6051 14.3356 90.1938 14.2068 89.9053 13.9481C89.6169 13.6894 89.4721 13.3454 89.4721 12.9163C89.4721 12.4872 89.6117 12.134 89.8939 11.896C90.1761 11.6602 90.6426 11.4835 91.2945 11.363C91.9173 11.2612 92.6723 11.1791 93.5606 11.1209V11.5427L93.5616 11.5438Z" fill="#023E8A"/>
<path id="Vector_9" d="M106.735 6.37768H106.69C105.979 5.28255 104.913 4.73707 103.489 4.73707C102.066 4.73707 100.957 5.27216 100.112 6.34443C99.2675 7.4167 98.8457 8.85368 98.8457 10.6553C98.8457 12.457 99.2706 13.8784 100.123 14.9569C100.974 16.0354 102.113 16.5757 103.535 16.5757C104.202 16.5757 104.823 16.4219 105.401 16.1112C105.979 15.8006 106.438 15.3652 106.779 14.8031H106.824V16.2879H109.846V0.500977H106.734V6.37768H106.735ZM106.246 13.2612C105.817 13.8888 105.246 14.2046 104.535 14.2046C103.823 14.2046 103.201 13.8825 102.757 13.2394C102.313 12.5952 102.091 11.737 102.091 10.6553C102.091 9.57372 102.313 8.71756 102.757 8.07337C103.201 7.42917 103.794 7.10812 104.535 7.10812C105.275 7.10812 105.816 7.42294 106.246 8.05155C106.675 8.67912 106.891 9.54774 106.891 10.6553C106.891 11.7629 106.676 12.6336 106.246 13.2622V13.2612Z" fill="#023E8A"/>
<path id="Vector_10" d="M119.267 4.73707C117.844 4.73707 116.778 5.28359 116.067 6.37768H116.022V0.500977H112.91V16.2879H115.932V14.8031H115.977C116.318 15.3652 116.777 15.8006 117.355 16.1112C117.933 16.4219 118.555 16.5757 119.221 16.5757C120.644 16.5757 121.78 16.0364 122.633 14.9569C123.485 13.8784 123.91 12.4456 123.91 10.6553C123.91 8.86511 123.489 7.4167 122.644 6.34443C121.801 5.27216 120.673 4.73707 119.266 4.73707H119.267ZM120.001 13.2383C119.558 13.8825 118.964 14.2036 118.224 14.2036C117.483 14.2036 116.943 13.8888 116.513 13.2602C116.082 12.6326 115.867 11.764 115.867 10.6533C115.867 9.54255 116.081 8.67704 116.513 8.04947C116.942 7.4219 117.512 7.10604 118.224 7.10604C118.935 7.10604 119.556 7.42814 120.001 8.07129C120.445 8.71549 120.668 9.57372 120.668 10.6533C120.668 11.7328 120.445 12.5931 120.001 13.2373V13.2383Z" fill="#023E8A"/>
<path id="Vector_11" d="M129.506 5.0249H126.394V16.2879H129.506V5.0249Z" fill="#023E8A"/>
<path id="Vector_12" d="M129.506 0.5H126.394V3.16094H129.506V0.5Z" fill="#023E8A"/>
<path id="Vector_13" d="M135.469 6.61974H135.424V5.0238H132.557V16.2868H135.669V10.9649C135.669 9.85629 135.921 9.01157 136.424 8.4266C136.928 7.84371 137.654 7.55174 138.602 7.55174C138.853 7.55174 139.179 7.5881 139.579 7.66291V4.97913C139.268 4.89081 138.927 4.84717 138.557 4.84717C137.225 4.84717 136.194 5.43837 135.468 6.61974H135.469Z" fill="#023E8A"/>
<path id="Vector_14" d="M151.737 5.02494H148.227L144.582 9.56962H144.537V0.5H141.427V16.2869H144.537V11.0107H144.582L148.359 16.2869H152.205L147.449 10.2128L151.737 5.02494Z" fill="#023E8A"/>
<path id="Vector_15" d="M158.304 4.66858C156.541 4.66858 155.137 5.20783 154.094 6.28737C153.049 7.36899 152.528 8.82363 152.528 10.6554C152.528 12.4872 153.049 13.9439 154.094 15.0235C155.137 16.1051 156.541 16.6443 158.304 16.6443C160.067 16.6443 161.471 16.1051 162.515 15.0235C163.559 13.945 164.082 12.4893 164.082 10.6554C164.082 8.82155 163.559 7.36899 162.515 6.28737C161.471 5.20887 160.066 4.66858 158.304 4.66858ZM160.137 13.2727C159.685 13.9231 159.074 14.2473 158.304 14.2473C157.535 14.2473 156.923 13.9231 156.47 13.2727C156.018 12.6223 155.793 11.7495 155.793 10.6544C155.793 9.55925 156.018 8.68959 156.47 8.03917C156.922 7.38874 157.533 7.06456 158.304 7.06456C159.075 7.06456 159.685 7.38874 160.137 8.03917C160.589 8.68959 160.815 9.56237 160.815 10.6544C160.815 11.7464 160.589 12.6213 160.137 13.2727Z" fill="#023E8A"/>
<path id="Vector_16" d="M169.425 6.61974H169.38V5.0238H166.513V16.2868H169.625V10.9649C169.625 9.85629 169.877 9.01157 170.38 8.4266C170.884 7.84371 171.61 7.55174 172.558 7.55174C172.809 7.55174 173.135 7.5881 173.535 7.66291V4.97913C173.224 4.89081 172.883 4.84717 172.513 4.84717C171.181 4.84717 170.15 5.43837 169.424 6.61974H169.425Z" fill="#023E8A"/>
<path id="Vector_17" d="M178.494 0.5H175.383V16.2869H178.494V0.5Z" fill="#023E8A"/>
<path id="Vector_18" d="M184.656 5.0249H181.544V16.2879H184.656V5.0249Z" fill="#023E8A"/>
<path id="Vector_19" d="M184.656 0.5H181.544V3.16094H184.656V0.5Z" fill="#023E8A"/>
<path id="Vector_20" d="M198.017 5.02494H194.507L190.862 9.56962H190.817V0.5H187.706V16.2869H190.817V11.0107H190.862L194.639 16.2869H198.485L193.729 10.2128L198.017 5.02494Z" fill="#023E8A"/>
<path id="Vector_21" d="M206.399 4.75696C205.021 4.75696 203.919 5.31907 203.089 6.44329H203.044V5.02399H200.132V16.287H203.244V10.2555C203.244 9.26735 203.447 8.50783 203.855 7.98416C204.263 7.45841 204.801 7.19554 205.467 7.19554C206.784 7.19554 207.445 8.02468 207.445 9.67984V16.287H210.556V9.36918C210.556 7.87818 210.184 6.73525 209.444 5.94456C208.704 5.15386 207.689 4.75696 206.4 4.75696H206.399Z" fill="#023E8A"/>
<path id="Vector_22" d="M216.648 0.5H213.537V3.16094H216.648V0.5Z" fill="#023E8A"/>
<path id="Vector_23" d="M216.648 5.0249H213.537V16.2879H216.648V5.0249Z" fill="#023E8A"/>
</g>
<g id="Group_4">
<path id="Vector_24" d="M87.858 27.5456C87.858 24.1334 85.4191 22.7017 82.2721 22.7017H75.4094V38.4886H78.6762V31.1624L84.6423 38.4886H89.0202L83.8217 32.2326C86.17 31.7557 87.858 30.2761 87.858 27.5466V27.5456ZM81.5421 30.5483H78.6762V25.3626H81.5421C83.2062 25.3626 84.232 26.3164 84.232 27.956C84.232 29.5956 83.2062 30.5494 81.5421 30.5494V30.5483Z" fill="#023E8A"/>
<path id="Vector_25" d="M93.7803 27.2256H90.6687V38.4886H93.7803V27.2256Z" fill="#023E8A"/>
<path id="Vector_26" d="M93.7803 22.7017H90.6687V25.3626H93.7803V22.7017Z" fill="#023E8A"/>
<path id="Vector_27" d="M102.543 31.6591C102.053 33.3163 101.639 34.9414 101.297 36.5373H101.252C100.912 34.9414 100.497 33.3163 100.009 31.6591L98.6968 27.2256H95.4529L99.2529 38.4886H103.298L107.097 27.2256H103.853L102.542 31.6591H102.543Z" fill="#023E8A"/>
<path id="Vector_28" d="M113.549 26.8704C111.786 26.8704 110.382 27.4096 109.338 28.4892C108.294 29.5708 107.772 31.0254 107.772 32.8572C107.772 34.689 108.294 36.1457 109.338 37.2253C110.382 38.3069 111.787 38.8461 113.549 38.8461C115.311 38.8461 116.716 38.3069 117.76 37.2253C118.804 36.1468 119.326 34.6911 119.326 32.8572C119.326 31.0233 118.804 29.5708 117.76 28.4892C116.716 27.4106 115.311 26.8704 113.549 26.8704ZM115.383 35.4745C114.931 36.1249 114.319 36.4491 113.549 36.4491C112.778 36.4491 112.168 36.1249 111.716 35.4745C111.264 34.8241 111.039 33.9513 111.039 32.8562C111.039 31.761 111.264 30.8914 111.716 30.2409C112.168 29.5905 112.779 29.2663 113.549 29.2663C114.318 29.2663 114.93 29.5905 115.383 30.2409C115.835 30.8914 116.061 31.7642 116.061 32.8562C116.061 33.9482 115.835 34.823 115.383 35.4745Z" fill="#023E8A"/>
<path id="Vector_29" d="M124.84 22.7017H121.729V25.3626H124.84V22.7017Z" fill="#023E8A"/>
<path id="Vector_30" d="M121.729 38.2663C121.729 39.0507 121.596 39.5921 121.329 39.8955C121.063 40.1989 120.641 40.3516 120.063 40.3516C119.841 40.3516 119.64 40.3287 119.463 40.2841V42.5242C119.938 42.6416 120.448 42.7029 120.996 42.7029C122.181 42.7029 123.117 42.3808 123.808 41.7366C124.496 41.0924 124.84 40.0908 124.84 38.7338V27.2267H121.728V38.2673L121.729 38.2663Z" fill="#023E8A"/>
<path id="Vector_31" d="M131.015 22.7017H127.903V38.4886H131.015V22.7017Z" fill="#023E8A"/>
<path id="Vector_32" d="M143.533 31.3267C143.533 28.3572 141.919 26.8704 138.689 26.8704C137.149 26.8704 135.963 27.233 135.133 27.9582C134.305 28.6814 133.859 29.6123 133.801 30.7511H136.823C136.852 30.2181 137.026 29.8014 137.345 29.5001C137.663 29.1967 138.112 29.044 138.689 29.044C139.919 29.044 140.533 29.7079 140.533 31.0389V31.4379C139.6 31.4992 138.659 31.601 137.712 31.7486C136.142 32 135.019 32.4219 134.345 33.0131C133.67 33.6043 133.334 34.3794 133.334 35.3405C133.334 36.3016 133.682 37.1473 134.377 37.7905C135.074 38.4347 136.007 38.7537 137.178 38.7537C138.793 38.7537 140.015 38.1645 140.844 36.9811H140.889C140.889 37.5567 140.941 38.0596 141.044 38.4887H143.845C143.636 37.7042 143.533 36.6777 143.533 35.4059V31.3257V31.3267ZM140.534 33.7445C140.534 34.7482 140.32 35.4651 139.89 35.8953C139.46 36.3234 138.868 36.5364 138.113 36.5364C137.579 36.5364 137.167 36.4075 136.88 36.1488C136.591 35.8901 136.447 35.5462 136.447 35.1171C136.447 34.688 136.586 34.3347 136.868 34.0968C137.15 33.8609 137.617 33.6843 138.269 33.5637C138.892 33.4619 139.647 33.3798 140.535 33.3216V33.7435L140.534 33.7445Z" fill="#023E8A"/>
<path id="Vector_33" d="M152.756 26.9586C151.378 26.9586 150.275 27.5207 149.445 28.6449H149.4V27.2256H146.489V38.4886H149.6V32.4571C149.6 31.469 149.803 30.7095 150.212 30.1858C150.62 29.6601 151.157 29.3972 151.824 29.3972C153.141 29.3972 153.801 30.2263 153.801 31.8815V38.4886H156.913V31.5708C156.913 30.0788 156.541 28.9369 155.801 28.1462C155.06 27.3555 154.046 26.9586 152.757 26.9586H152.756Z" fill="#023E8A"/>
<path id="Vector_34" d="M163.871 35.7622C163.648 35.4951 163.538 35.0525 163.538 34.4312V29.5312H165.693V27.2256H163.538V24.2997H160.426V27.2256H158.604V29.5312H160.426V34.985C160.426 36.2858 160.722 37.222 161.315 37.7914C161.907 38.3608 162.856 38.6434 164.159 38.6434C164.781 38.6434 165.33 38.5706 165.803 38.4231V36.05C165.58 36.1248 165.315 36.1611 165.003 36.1611C164.469 36.1611 164.092 36.0271 163.869 35.7622H163.871Z" fill="#023E8A"/>
<path id="Vector_35" d="M171.166 27.2256H168.055V38.4886H171.166V27.2256Z" fill="#023E8A"/>
<path id="Vector_36" d="M171.166 22.7017H168.055V25.3626H171.166V22.7017Z" fill="#023E8A"/>
<path id="Vector_37" d="M177.13 28.8215H177.085V27.2256H174.219V38.4886H177.33V33.1667C177.33 32.0581 177.582 31.2134 178.085 30.6284C178.589 30.0455 179.315 29.7535 180.264 29.7535C180.515 29.7535 180.841 29.7899 181.241 29.8647V27.1809C180.929 27.0926 180.589 27.049 180.218 27.049C178.886 27.049 177.855 27.6402 177.129 28.8215H177.13Z" fill="#023E8A"/>
<path id="Vector_38" d="M186.199 22.7017H183.087V25.3626H186.199V22.7017Z" fill="#023E8A"/>
<path id="Vector_39" d="M186.199 27.2256H183.087V38.4886H186.199V27.2256Z" fill="#023E8A"/>
<path id="Vector_40" d="M197.788 32.9559C197.572 32.7273 197.228 32.5071 196.754 32.292C196.279 32.079 195.921 31.9366 195.676 31.8701C195.432 31.8047 195.013 31.6883 194.421 31.5283C193.458 31.2768 192.813 31.0659 192.488 30.8955C192.162 30.7251 191.999 30.456 191.999 30.0861C191.999 29.39 192.51 29.044 193.532 29.044C194.718 29.044 195.309 29.5905 195.309 30.6846H198.288C198.288 29.443 197.873 28.4975 197.043 27.847C196.214 27.1966 195.051 26.8704 193.555 26.8704C192.162 26.8704 191.036 27.1925 190.177 27.8356C189.317 28.4798 188.887 29.3089 188.887 30.3293C188.887 30.6098 188.916 30.8779 188.977 31.1272C189.036 31.3787 189.095 31.5989 189.154 31.7818C189.213 31.9678 189.328 32.1444 189.499 32.3148C189.669 32.4852 189.8 32.6203 189.888 32.7252C189.977 32.8271 190.15 32.9382 190.411 33.0567C190.67 33.1772 190.844 33.2603 190.933 33.3133C191.022 33.3653 191.229 33.438 191.555 33.5357C191.881 33.6313 192.081 33.6895 192.155 33.7123C192.229 33.7352 192.445 33.7892 192.801 33.8775C193.689 34.1155 194.267 34.2921 194.534 34.4105C195.111 34.6485 195.4 35.0184 195.4 35.5192C195.4 36.2444 194.851 36.607 193.756 36.607C193.118 36.607 192.63 36.4512 192.289 36.1405C191.949 35.8298 191.778 35.3945 191.778 34.8324H188.623C188.623 36.1634 189.066 37.165 189.957 37.8352C190.845 38.5084 192.09 38.8461 193.689 38.8461C195.289 38.8461 196.427 38.524 197.322 37.8809C198.219 37.2367 198.666 36.3847 198.666 35.3197C198.666 34.7867 198.574 34.3201 198.389 33.9118C198.203 33.5066 198.004 33.1886 197.789 32.958L197.788 32.9559Z" fill="#023E8A"/>
<path id="Vector_41" d="M210.408 28.1461C209.668 27.3554 208.654 26.9585 207.364 26.9585C206.075 26.9585 205.038 27.4614 204.253 28.4682H204.208V22.7017H201.096V38.4886H204.208V32.457C204.208 31.4689 204.411 30.7094 204.819 30.1857C205.228 29.66 205.765 29.3971 206.431 29.3971C207.749 29.3971 208.409 30.2263 208.409 31.8814V38.4886H211.521V31.5707C211.521 30.0787 211.149 28.9368 210.408 28.1461Z" fill="#023E8A"/>
</g>
<g id="Group_5">
<path id="Vector_42" d="M87.7195 44.9047H83.8977L78.72 51.8443H78.6762V44.9047H75.4094V60.6916H78.6762V53.2407H78.72L84.0758 60.6916H88.2309L81.6983 52.4002L87.7195 44.9047Z" fill="#023E8A"/>
<path id="Vector_43" d="M94.4157 49.0723C92.6526 49.0723 91.2489 49.6115 90.2054 50.6911C89.1609 51.7727 88.6392 53.2273 88.6392 55.0591C88.6392 56.8909 89.1609 58.3476 90.2054 59.4272C91.2489 60.5088 92.6526 61.048 94.4157 61.048C96.1787 61.048 97.5825 60.5088 98.627 59.4272C99.6705 58.3487 100.193 56.893 100.193 55.0591C100.193 53.2252 99.6705 51.7727 98.627 50.6911C97.5825 49.6126 96.1777 49.0723 94.4157 49.0723ZM96.2496 57.6764C95.7976 58.3268 95.1863 58.651 94.4167 58.651C93.6471 58.651 93.0359 58.3268 92.5829 57.6764C92.1309 57.026 91.906 56.1532 91.906 55.0581C91.906 53.963 92.1309 53.0933 92.5829 52.4429C93.0348 51.7924 93.6461 51.4683 94.4167 51.4683C95.1873 51.4683 95.7976 51.7924 96.2496 52.4429C96.7015 53.0933 96.9275 53.9661 96.9275 55.0581C96.9275 56.1501 96.7015 57.026 96.2496 57.6764Z" fill="#023E8A"/>
<path id="Vector_44" d="M115.693 49.1606C114.195 49.1606 112.997 49.8048 112.092 51.0922C111.455 49.8048 110.337 49.1606 108.737 49.1606C107.448 49.1606 106.404 49.6801 105.604 50.7129H105.559V49.4277H102.626V60.6907H105.737V54.9043C105.737 53.8393 105.915 53.0227 106.272 52.4543C106.627 51.885 107.138 51.6003 107.805 51.6003C108.381 51.6003 108.822 51.8018 109.127 52.2008C109.43 52.5998 109.582 53.1619 109.582 53.8851V60.6917H112.694V54.9054C112.694 53.8404 112.871 53.0237 113.227 52.4554C113.582 51.886 114.093 51.6013 114.76 51.6013C115.945 51.6013 116.537 52.4304 116.537 54.0856V60.6927H119.649V53.7749C119.649 52.2673 119.297 51.1234 118.594 50.3389C117.89 49.5544 116.924 49.1627 115.694 49.1627L115.693 49.1606Z" fill="#023E8A"/>
<path id="Vector_45" d="M128.95 49.1408C128.283 49.1408 127.661 49.2946 127.084 49.6053C126.506 49.9159 126.046 50.3513 125.706 50.9134H125.661V49.4286H122.639V64.7937H125.751V59.3378H125.795C126.507 60.4329 127.573 60.9784 128.995 60.9784C130.418 60.9784 131.529 60.4433 132.374 59.371C133.219 58.2987 133.64 56.8618 133.64 55.058C133.64 53.2543 133.214 51.8371 132.362 50.7586C131.51 49.6801 130.373 49.1398 128.951 49.1398L128.95 49.1408ZM129.728 57.6431C129.284 58.2873 128.69 58.6084 127.95 58.6084C127.21 58.6084 126.669 58.2936 126.239 57.666C125.809 57.0384 125.593 56.1698 125.593 55.0591C125.593 53.9484 125.808 53.0829 126.239 52.4553C126.668 51.8277 127.239 51.5119 127.95 51.5119C128.661 51.5119 129.284 51.834 129.728 52.4771C130.171 53.1213 130.394 53.9795 130.394 55.0591C130.394 56.1386 130.171 56.9989 129.728 57.6431Z" fill="#023E8A"/>
<path id="Vector_46" d="M145.462 53.5286C145.462 50.5591 143.848 49.0723 140.617 49.0723C139.077 49.0723 137.892 49.4349 137.062 50.1601C136.233 50.8833 135.787 51.8143 135.728 52.953H138.75C138.779 52.42 138.953 52.0034 139.273 51.702C139.59 51.3986 140.039 51.2459 140.616 51.2459C141.846 51.2459 142.461 51.9098 142.461 53.2408V53.6398C141.527 53.7011 140.586 53.8029 139.639 53.9505C138.068 54.2019 136.946 54.6238 136.273 55.215C135.598 55.8062 135.261 56.5823 135.261 57.5424C135.261 58.5024 135.609 59.3492 136.305 59.9924C137.002 60.6366 137.935 60.9556 139.105 60.9556C140.72 60.9556 141.943 60.3664 142.772 59.183H142.817C142.817 59.7586 142.869 60.2615 142.972 60.6906H145.772C145.564 59.9062 145.461 58.8796 145.461 57.6078V53.5276L145.462 53.5286ZM142.462 55.9475C142.462 56.9512 142.247 57.6681 141.818 58.0982C141.388 58.5263 140.795 58.7393 140.04 58.7393C139.506 58.7393 139.096 58.6105 138.807 58.3518C138.519 58.0931 138.374 57.7491 138.374 57.32C138.374 56.8909 138.514 56.5376 138.796 56.2997C139.077 56.0638 139.545 55.8872 140.197 55.7667C140.819 55.6649 141.574 55.5828 142.463 55.5246V55.9464L142.462 55.9475Z" fill="#023E8A"/>
<path id="Vector_47" d="M154.684 49.1606C153.307 49.1606 152.204 49.7228 151.373 50.847H151.328V49.4277H148.416V60.6907H151.528V54.6591C151.528 53.671 151.731 52.9115 152.139 52.3878C152.547 51.8621 153.085 51.5992 153.751 51.5992C155.069 51.5992 155.729 52.4284 155.729 54.0835V60.6907H158.84V53.7729C158.84 52.2819 158.469 51.1389 157.728 50.3482C156.988 49.5575 155.974 49.1606 154.684 49.1606Z" fill="#023E8A"/>
<path id="Vector_48" d="M164.928 49.4286H161.817V60.6916H164.928V49.4286Z" fill="#023E8A"/>
<path id="Vector_49" d="M164.928 44.9047H161.817V47.5656H164.928V44.9047Z" fill="#023E8A"/>
<path id="Vector_50" d="M173.69 53.1982C173.26 54.5291 172.824 56.1022 172.379 57.9195H172.334C171.978 56.3537 171.564 54.7806 171.09 53.1982L169.935 49.4286H166.602L169.802 58.5855C170.157 59.5892 170.336 60.2697 170.336 60.6251C170.336 61.1716 170.147 61.6111 169.77 61.9446C169.392 62.2761 168.892 62.4434 168.269 62.4434C167.795 62.4434 167.395 62.3841 167.069 62.2667V64.749C167.572 64.8664 168.113 64.9256 168.692 64.9256C170.114 64.9256 171.224 64.6243 172.025 64.0165C172.825 63.4117 173.506 62.3229 174.068 60.757L178.113 49.4286H174.913L173.69 53.1982Z" fill="#023E8A"/>
<path id="Vector_51" d="M188.849 53.5286C188.849 50.5591 187.235 49.0723 184.004 49.0723C182.464 49.0723 181.279 49.4349 180.449 50.1601C179.62 50.8833 179.174 51.8143 179.115 52.953H182.137C182.166 52.42 182.34 52.0034 182.66 51.702C182.977 51.3986 183.426 51.2459 184.003 51.2459C185.233 51.2459 185.847 51.9098 185.847 53.2408V53.6398C184.914 53.7011 183.973 53.8029 183.026 53.9505C181.455 54.2019 180.333 54.6238 179.66 55.215C178.985 55.8062 178.648 56.5823 178.648 57.5424C178.648 58.5024 178.996 59.3492 179.692 59.9924C180.389 60.6366 181.322 60.9556 182.492 60.9556C184.107 60.9556 185.33 60.3664 186.159 59.183H186.204C186.204 59.7586 186.256 60.2615 186.359 60.6906H189.159C188.951 59.9062 188.848 58.8796 188.848 57.6078V53.5276L188.849 53.5286ZM185.849 55.9475C185.849 56.9512 185.634 57.6681 185.205 58.0982C184.775 58.5263 184.182 58.7393 183.427 58.7393C182.893 58.7393 182.482 58.6105 182.193 58.3518C181.905 58.0931 181.76 57.7491 181.76 57.32C181.76 56.8909 181.9 56.5376 182.182 56.2997C182.464 56.0638 182.931 55.8872 183.582 55.7667C184.205 55.6649 184.96 55.5828 185.849 55.5246V55.9464V55.9475Z" fill="#023E8A"/>
<path id="Vector_52" d="M200.301 55.1588C200.085 54.9302 199.741 54.7099 199.267 54.4949C198.792 54.2819 198.433 54.1385 198.189 54.073C197.944 54.0076 197.526 53.8912 196.934 53.7312C195.971 53.4797 195.325 53.2688 195.001 53.0984C194.675 52.928 194.512 52.6589 194.512 52.289C194.512 51.5929 195.023 51.2469 196.045 51.2469C197.231 51.2469 197.822 51.7934 197.822 52.8875H200.801C200.801 51.6459 200.386 50.7004 199.556 50.0499C198.727 49.3995 197.564 49.0732 196.068 49.0732C194.675 49.0732 193.549 49.3953 192.689 50.0385C191.83 50.6827 191.4 51.5118 191.4 52.5321C191.4 52.8137 191.429 53.0808 191.49 53.3301C191.549 53.5816 191.607 53.8018 191.667 53.9847C191.726 54.1707 191.841 54.3473 192.011 54.5177C192.181 54.6881 192.311 54.8232 192.4 54.9281C192.489 55.03 192.662 55.1411 192.923 55.2585C193.182 55.3791 193.356 55.4622 193.444 55.5152C193.534 55.5671 193.741 55.6399 194.067 55.7375C194.393 55.8331 194.593 55.8913 194.667 55.9142C194.741 55.937 194.957 55.9911 195.313 56.0794C196.201 56.3173 196.779 56.4939 197.047 56.6124C197.624 56.8503 197.913 57.2202 197.913 57.721C197.913 58.4463 197.364 58.8089 196.269 58.8089C195.631 58.8089 195.143 58.652 194.802 58.3424C194.462 58.0317 194.291 57.5963 194.291 57.0342H191.136C191.136 58.3652 191.579 59.3668 192.47 60.037C193.358 60.7103 194.603 61.048 196.202 61.048C197.802 61.048 198.94 60.7259 199.835 60.0827C200.732 59.4385 201.179 58.5865 201.179 57.5215C201.179 56.9885 201.087 56.522 200.902 56.1137C200.716 55.7084 200.516 55.3905 200.302 55.1598L200.301 55.1588Z" fill="#023E8A"/>
<path id="Vector_53" d="M206.75 49.4286H203.638V60.6916H206.75V49.4286Z" fill="#023E8A"/>
<path id="Vector_54" d="M206.75 44.9047H203.638V47.5656H206.75V44.9047Z" fill="#023E8A"/>
</g>
</g>
</g>
</svg>
