<svg width="266" height="90" viewBox="0 0 266 90" fill="none" xmlns="http://www.w3.org/2000/svg">
<mask id="path-1-outside-1_489_8291" maskUnits="userSpaceOnUse" x="0" y="0" width="266" height="90" fill="black">
<rect fill="white" width="266" height="90"/>
<path d="M0 0H266V89H0V0Z"/>
</mask>
<path d="M266 88H0V90H266V88Z" fill="#E9ECEF" mask="url(#path-1-outside-1_489_8291)"/>
<path d="M34.2675 23.5237H24V28.4069L53.9162 35.569L62.8053 65.4762H66.0469V60.3483L58.8119 30.6924L34.2675 23.5237Z" fill="#023E8A"/>
<path d="M40.0908 23.5238L60.9248 28.5844L66.0469 46.0444V23.5238H40.0908Z" fill="#023E8A"/>
<path d="M24 56.4602V65.4762H32.27L30.7734 58.619L24 56.4602Z" fill="#023E8A"/>
<path d="M24 47.4028V54.5845L32.8819 56.5145L35.7511 65.4762H40.9508L37.7848 51.6422L24 47.4028Z" fill="#023E8A"/>
<path d="M24 29.4504V37.1753L46.9069 42.5538L53.8313 65.4762H58.4903L51.8041 37.6771L24 29.4504Z" fill="#023E8A"/>
<path d="M24 38.3998V45.9212L39.8948 49.5356L44.826 65.4762H49.6977L44.7948 44.6604L24 38.3998Z" fill="#023E8A"/>
<path d="M83.2619 22.0483H74.0469V23.9029H77.5163V33.0515H79.7932V23.9029H83.2619V22.0483Z" fill="#023E8A"/>
<path d="M89.9046 28.0597C89.9046 25.99 88.7796 24.9537 86.5281 24.9537C85.4546 24.9537 84.6286 25.2065 84.0501 25.7119C83.4724 26.216 83.1617 26.8648 83.1211 27.6578H85.2274C85.2477 27.2863 85.3689 26.9959 85.5918 26.7859C85.8131 26.5744 86.126 26.4687 86.5281 26.4687C87.3853 26.4687 87.8135 26.9315 87.8135 27.8591V28.1372C87.1632 28.18 86.507 28.2509 85.8473 28.3538C84.752 28.529 83.9703 28.823 83.5007 29.2351C83.0303 29.6471 82.7959 30.1874 82.7959 30.8572C82.7959 31.5271 83.0383 32.1166 83.5232 32.5649C84.0087 33.0139 84.6591 33.2362 85.4749 33.2362C86.6007 33.2362 87.4528 32.8256 88.0305 32.0007H88.0617C88.0617 32.4019 88.098 32.7524 88.1699 33.0515H90.1216C89.9765 32.5048 89.9046 31.7893 89.9046 30.9029V28.059V28.0597ZM87.8135 29.7456C87.8135 30.4452 87.664 30.9449 87.3642 31.2447C87.0645 31.543 86.6515 31.6915 86.1252 31.6915C85.7529 31.6915 85.4662 31.6017 85.2651 31.4214C85.0641 31.2411 84.9632 31.0014 84.9632 30.7023C84.9632 30.4032 85.0605 30.157 85.2572 29.9911C85.4539 29.8267 85.779 29.7036 86.2334 29.6196C86.6674 29.5487 87.1937 29.4914 87.8128 29.4509V29.7449L87.8135 29.7456Z" fill="#023E8A"/>
<path d="M96.9954 26.145H96.9642C96.4685 25.3817 95.7252 25.0015 94.733 25.0015C93.7408 25.0015 92.9678 25.3744 92.3792 26.1218C91.7905 26.8692 91.4966 27.8707 91.4966 29.1264C91.4966 30.3822 91.7927 31.3728 92.3872 32.1245C92.9802 32.8762 93.7735 33.2528 94.765 33.2528C95.2295 33.2528 95.6628 33.1456 96.0656 32.9291C96.4685 32.7126 96.7886 32.4091 97.0259 32.0173H97.0571V33.0522H99.1634V22.049H96.9947V26.145H96.9954ZM96.6543 30.9427C96.3552 31.3801 95.9575 31.6002 95.4617 31.6002C94.966 31.6002 94.532 31.3757 94.2228 30.9275C93.9136 30.4785 93.7582 29.8803 93.7582 29.1264C93.7582 28.3726 93.9136 27.7758 94.2228 27.3268C94.532 26.8778 94.9457 26.6541 95.4617 26.6541C95.9778 26.6541 96.3545 26.8735 96.6543 27.3116C96.9533 27.749 97.1043 28.3544 97.1043 29.1264C97.1043 29.8984 96.954 30.5053 96.6543 30.9434V30.9427Z" fill="#023E8A"/>
<path d="M105.73 25.0015C104.738 25.0015 103.995 25.3824 103.499 26.145H103.468V22.049H101.299V33.0522H103.406V32.0173H103.437C103.674 32.4091 103.994 32.7126 104.397 32.9291C104.8 33.1456 105.233 33.2528 105.698 33.2528C106.689 33.2528 107.481 32.8769 108.076 32.1245C108.669 31.3728 108.966 30.3742 108.966 29.1264C108.966 27.8787 108.672 26.8692 108.084 26.1218C107.496 25.3744 106.71 25.0015 105.729 25.0015H105.73ZM106.241 30.9267C105.932 31.3757 105.519 31.5995 105.002 31.5995C104.486 31.5995 104.11 31.3801 103.81 30.9419C103.51 30.5045 103.36 29.8991 103.36 29.125C103.36 28.3508 103.509 27.7476 103.81 27.3102C104.109 26.8728 104.507 26.6526 105.002 26.6526C105.498 26.6526 105.932 26.8771 106.241 27.3254C106.551 27.7744 106.706 28.3726 106.706 29.125C106.706 29.8774 106.551 30.477 106.241 30.926V30.9267Z" fill="#023E8A"/>
<path d="M112.866 25.2021H110.697V33.0522H112.866V25.2021Z" fill="#023E8A"/>
<path d="M112.866 22.0483H110.697V23.903H112.866V22.0483Z" fill="#023E8A"/>
<path d="M117.022 26.3137H116.991V25.2014H114.993V33.0515H117.161V29.3422C117.161 28.5695 117.337 27.9808 117.688 27.573C118.039 27.1668 118.545 26.9633 119.206 26.9633C119.381 26.9633 119.608 26.9886 119.887 27.0408V25.1702C119.67 25.1087 119.433 25.0782 119.174 25.0782C118.246 25.0782 117.527 25.4903 117.021 26.3137H117.022Z" fill="#023E8A"/>
<path d="M128.361 25.2021H125.914L123.374 28.3697H123.343V22.0483H121.175V33.0515H123.343V29.3741H123.374L126.006 33.0515H128.687L125.372 28.818L128.361 25.2021Z" fill="#023E8A"/>
<path d="M132.938 24.9537C131.709 24.9537 130.731 25.3296 130.004 26.082C129.276 26.8359 128.912 27.8497 128.912 29.1265C128.912 30.4032 129.276 31.4185 130.004 32.1709C130.731 32.9248 131.709 33.3006 132.938 33.3006C134.167 33.3006 135.145 32.9248 135.873 32.1709C136.6 31.4192 136.965 30.4046 136.965 29.1265C136.965 27.8483 136.6 26.8359 135.873 26.082C135.145 25.3303 134.166 24.9537 132.938 24.9537ZM134.215 30.9507C133.9 31.404 133.474 31.6299 132.938 31.6299C132.402 31.6299 131.976 31.404 131.66 30.9507C131.345 30.4973 131.188 29.889 131.188 29.1257C131.188 28.3624 131.345 27.7563 131.66 27.303C131.975 26.8496 132.401 26.6237 132.938 26.6237C133.475 26.6237 133.9 26.8496 134.215 27.303C134.53 27.7563 134.688 28.3646 134.688 29.1257C134.688 29.8868 134.53 30.4966 134.215 30.9507Z" fill="#023E8A"/>
<path d="M140.689 26.3137H140.658V25.2014H138.66V33.0515H140.828V29.3422C140.828 28.5695 141.004 27.9808 141.355 27.573C141.706 27.1668 142.212 26.9633 142.873 26.9633C143.048 26.9633 143.275 26.9886 143.554 27.0408V25.1702C143.337 25.1087 143.1 25.0782 142.841 25.0782C141.913 25.0782 141.194 25.4903 140.688 26.3137H140.689Z" fill="#023E8A"/>
<path d="M147.01 22.0483H144.841V33.0515H147.01V22.0483Z" fill="#023E8A"/>
<path d="M151.305 25.2021H149.136V33.0522H151.305V25.2021Z" fill="#023E8A"/>
<path d="M151.305 22.0483H149.136V23.903H151.305V22.0483Z" fill="#023E8A"/>
<path d="M160.617 25.2021H158.17L155.63 28.3697H155.599V22.0483H153.431V33.0515H155.599V29.3741H155.63L158.262 33.0515H160.943L157.628 28.818L160.617 25.2021Z" fill="#023E8A"/>
<path d="M166.459 25.0154C165.499 25.0154 164.73 25.4072 164.152 26.1907H164.121V25.2015H162.091V33.0516H164.26V28.8477C164.26 28.159 164.402 27.6297 164.686 27.2647C164.971 26.8982 165.345 26.715 165.81 26.715C166.728 26.715 167.188 27.2929 167.188 28.4465V33.0516H169.357V28.23C169.357 27.1908 169.098 26.3942 168.582 25.8431C168.066 25.292 167.359 25.0154 166.46 25.0154H166.459Z" fill="#023E8A"/>
<path d="M173.603 22.0483H171.434V23.903H173.603V22.0483Z" fill="#023E8A"/>
<path d="M173.603 25.2021H171.434V33.0522H173.603V25.2021Z" fill="#023E8A"/>
<path d="M83.8383 40.8986C83.8383 38.5204 82.1385 37.5225 79.945 37.5225H75.1619V48.5257H77.4388V43.4195L81.597 48.5257H84.6484L81.025 44.1654C82.6618 43.833 83.8383 42.8018 83.8383 40.8994V40.8986ZM79.4362 42.9915H77.4388V39.3771H79.4362C80.5961 39.3771 81.311 40.0419 81.311 41.1847C81.311 42.3275 80.5961 42.9922 79.4362 42.9922V42.9915Z" fill="#023E8A"/>
<path d="M87.9661 40.6756H85.7974V48.5257H87.9661V40.6756Z" fill="#023E8A"/>
<path d="M87.9661 37.5225H85.7974V39.3771H87.9661V37.5225Z" fill="#023E8A"/>
<path d="M94.0732 43.7657C93.7321 44.9207 93.4432 46.0534 93.2051 47.1657H93.1739C92.9366 46.0534 92.6477 44.9207 92.3073 43.7657L91.3928 40.6756H89.1318L91.7804 48.5257H94.5995L97.2472 40.6756H94.9863L94.0725 43.7657H94.0732Z" fill="#023E8A"/>
<path d="M101.744 40.428C100.515 40.428 99.5369 40.8039 98.8097 41.5563C98.0817 42.3102 97.718 43.324 97.718 44.6008C97.718 45.8775 98.0817 46.8928 98.8097 47.6452C99.5369 48.3991 100.516 48.7749 101.744 48.7749C102.972 48.7749 103.951 48.3991 104.679 47.6452C105.407 46.8935 105.771 45.8789 105.771 44.6008C105.771 43.3226 105.407 42.3102 104.679 41.5563C103.951 40.8046 102.972 40.428 101.744 40.428ZM103.022 46.425C102.707 46.8783 102.281 47.1042 101.744 47.1042C101.207 47.1042 100.782 46.8783 100.467 46.425C100.152 45.9716 99.9949 45.3633 99.9949 44.6C99.9949 43.8368 100.152 43.2306 100.467 42.7773C100.782 42.3239 101.208 42.098 101.744 42.098C102.281 42.098 102.707 42.3239 103.022 42.7773C103.337 43.2306 103.495 43.8389 103.495 44.6C103.495 45.3612 103.337 45.9709 103.022 46.425Z" fill="#023E8A"/>
<path d="M109.614 37.5225H107.446V39.3771H109.614V37.5225Z" fill="#023E8A"/>
<path d="M107.446 48.3708C107.446 48.9176 107.353 49.2949 107.167 49.5063C106.982 49.7178 106.687 49.8242 106.284 49.8242C106.13 49.8242 105.99 49.8083 105.866 49.7772V51.3385C106.197 51.4203 106.553 51.4631 106.935 51.4631C107.761 51.4631 108.413 51.2386 108.894 50.7896C109.374 50.3406 109.614 49.6425 109.614 48.6967V40.6764H107.445V48.3715L107.446 48.3708Z" fill="#023E8A"/>
<path d="M113.918 37.5225H111.749V48.5257H113.918V37.5225Z" fill="#023E8A"/>
<path d="M122.643 43.534C122.643 41.4643 121.518 40.428 119.266 40.428C118.193 40.428 117.367 40.6808 116.788 41.1863C116.211 41.6903 115.9 42.3391 115.859 43.1328H117.966C117.986 42.7613 118.107 42.471 118.33 42.2609C118.551 42.0495 118.864 41.943 119.266 41.943C120.124 41.943 120.552 42.4058 120.552 43.3334V43.6115C119.901 43.6543 119.245 43.7252 118.586 43.8281C117.491 44.0033 116.709 44.2973 116.239 44.7094C115.769 45.1214 115.534 45.6617 115.534 46.3316C115.534 47.0014 115.777 47.5909 116.261 48.0392C116.747 48.4882 117.397 48.7105 118.213 48.7105C119.339 48.7105 120.191 48.2999 120.769 47.475H120.8C120.8 47.8762 120.836 48.2267 120.908 48.5258H122.86C122.715 47.9791 122.643 47.2636 122.643 46.3772V43.5333V43.534ZM120.553 45.2192C120.553 45.9188 120.403 46.4185 120.104 46.7183C119.804 47.0166 119.391 47.1651 118.865 47.1651C118.493 47.1651 118.206 47.0753 118.006 46.895C117.805 46.7146 117.704 46.4749 117.704 46.1759C117.704 45.8768 117.801 45.6305 117.998 45.4647C118.194 45.3003 118.519 45.1772 118.974 45.0932C119.408 45.0222 119.934 44.965 120.553 44.9245V45.2185L120.553 45.2192Z" fill="#023E8A"/>
<path d="M129.071 40.4895C128.111 40.4895 127.342 40.8813 126.763 41.6648H126.732V40.6756H124.703V48.5257H126.872V44.3219C126.872 43.6332 127.013 43.1038 127.298 42.7388C127.582 42.3724 127.957 42.1892 128.421 42.1892C129.339 42.1892 129.8 42.767 129.8 43.9207V48.5257H131.968V43.7041C131.968 42.6642 131.709 41.8683 131.193 41.3172C130.677 40.7661 129.97 40.4895 129.072 40.4895H129.071Z" fill="#023E8A"/>
<path d="M136.818 46.6254C136.663 46.4393 136.586 46.1308 136.586 45.6978V42.2825H138.088V40.6756H136.586V38.6363H134.417V40.6756H133.147V42.2825H134.417V46.0838C134.417 46.9904 134.623 47.6429 135.036 48.0398C135.449 48.4366 136.111 48.6336 137.019 48.6336C137.453 48.6336 137.835 48.5829 138.165 48.4801V46.826C138.009 46.8782 137.824 46.9035 137.607 46.9035C137.235 46.9035 136.972 46.8101 136.817 46.6254H136.818Z" fill="#023E8A"/>
<path d="M141.903 40.6756H139.734V48.5257H141.903V40.6756Z" fill="#023E8A"/>
<path d="M141.903 37.5225H139.734V39.3771H141.903V37.5225Z" fill="#023E8A"/>
<path d="M146.059 41.7879H146.028V40.6756H144.03V48.5257H146.199V44.8165C146.199 44.0438 146.374 43.455 146.725 43.0473C147.076 42.641 147.582 42.4375 148.243 42.4375C148.418 42.4375 148.646 42.4629 148.924 42.515V40.6445C148.707 40.5829 148.47 40.5525 148.211 40.5525C147.283 40.5525 146.565 40.9645 146.059 41.7879H146.059Z" fill="#023E8A"/>
<path d="M152.38 37.5225H150.211V39.3771H152.38V37.5225Z" fill="#023E8A"/>
<path d="M152.38 40.6756H150.211V48.5257H152.38V40.6756Z" fill="#023E8A"/>
<path d="M160.458 44.6696C160.307 44.5102 160.067 44.3567 159.737 44.2068C159.406 44.0584 159.156 43.9591 158.986 43.9128C158.816 43.8672 158.523 43.7861 158.111 43.6745C157.44 43.4993 156.99 43.3523 156.764 43.2335C156.537 43.1147 156.423 42.9272 156.423 42.6694C156.423 42.1842 156.779 41.943 157.491 41.943C158.318 41.943 158.73 42.3239 158.73 43.0865H160.806C160.806 42.2211 160.517 41.5621 159.939 41.1088C159.361 40.6554 158.55 40.428 157.507 40.428C156.537 40.428 155.751 40.6525 155.153 41.1008C154.554 41.5498 154.254 42.1277 154.254 42.8388C154.254 43.0344 154.274 43.2212 154.316 43.395C154.358 43.5703 154.398 43.7238 154.44 43.8512C154.481 43.9809 154.561 44.104 154.68 44.2227C154.799 44.3415 154.89 44.4356 154.951 44.5088C155.013 44.5798 155.134 44.6572 155.316 44.7398C155.497 44.8238 155.618 44.8817 155.679 44.9187C155.742 44.9549 155.886 45.0056 156.113 45.0737C156.341 45.1403 156.48 45.1808 156.532 45.1968C156.583 45.2127 156.733 45.2504 156.982 45.3119C157.601 45.4777 158.004 45.6009 158.189 45.6834C158.591 45.8493 158.793 46.1071 158.793 46.4561C158.793 46.9616 158.411 47.2143 157.647 47.2143C157.203 47.2143 156.863 47.1057 156.625 46.8892C156.388 46.6726 156.269 46.3692 156.269 45.9774H154.07C154.07 46.9051 154.379 47.6032 154.999 48.0703C155.618 48.5396 156.486 48.7749 157.601 48.7749C158.716 48.7749 159.509 48.5504 160.133 48.1022C160.758 47.6532 161.069 47.0594 161.069 46.3171C161.069 45.9456 161.006 45.6204 160.876 45.3358C160.747 45.0534 160.608 44.8318 160.458 44.671L160.458 44.6696Z" fill="#023E8A"/>
<path d="M169.254 41.3172C168.738 40.7661 168.031 40.4895 167.132 40.4895C166.234 40.4895 165.511 40.84 164.964 41.5417H164.932V37.5225H162.764V48.5257H164.932V44.3218C164.932 43.6331 165.074 43.1038 165.358 42.7388C165.643 42.3724 166.018 42.1891 166.482 42.1891C167.4 42.1891 167.86 42.767 167.86 43.9206V48.5257H170.029V43.7041C170.029 42.6642 169.77 41.8683 169.254 41.3172Z" fill="#023E8A"/>
<path d="M83.7418 52.9976H81.078L77.4692 57.8344H77.4388V52.9976H75.1619V64.0008H77.4388V58.8077H77.4692L81.2022 64.0008H84.0982L79.5451 58.2219L83.7418 52.9976Z" fill="#023E8A"/>
<path d="M88.4089 55.9023C87.1801 55.9023 86.2017 56.2782 85.4745 57.0306C84.7465 57.7845 84.3828 58.7983 84.3828 60.0751C84.3828 61.3518 84.7465 62.3671 85.4745 63.1195C86.2017 63.8734 87.1801 64.2492 88.4089 64.2492C89.6378 64.2492 90.6162 63.8734 91.3442 63.1195C92.0714 62.3678 92.4358 61.3532 92.4358 60.0751C92.4358 58.7969 92.0714 57.7845 91.3442 57.0306C90.6162 56.2789 89.637 55.9023 88.4089 55.9023ZM89.6871 61.8993C89.3721 62.3526 88.9461 62.5786 88.4097 62.5786C87.8733 62.5786 87.4472 62.3526 87.1315 61.8993C86.8165 61.4459 86.6597 60.8376 86.6597 60.0744C86.6597 59.3111 86.8165 58.7049 87.1315 58.2516C87.4465 57.7983 87.8726 57.5723 88.4097 57.5723C88.9468 57.5723 89.3721 57.7983 89.6871 58.2516C90.0021 58.7049 90.1596 59.3132 90.1596 60.0744C90.1596 60.8355 90.0021 61.4459 89.6871 61.8993Z" fill="#023E8A"/>
<path d="M103.239 55.9639C102.195 55.9639 101.36 56.4129 100.729 57.3102C100.285 56.4129 99.5058 55.9639 98.3902 55.9639C97.4924 55.9639 96.7644 56.326 96.207 57.0458H96.1757V56.15H94.1311V64.0002H96.2999V59.9672C96.2999 59.2249 96.424 58.6557 96.6722 58.2596C96.9197 57.8627 97.2761 57.6643 97.7406 57.6643C98.1427 57.6643 98.4497 57.8048 98.6624 58.0829C98.8736 58.361 98.9796 58.7527 98.9796 59.2568V64.0009H101.148V59.9679C101.148 59.2256 101.272 58.6564 101.52 58.2603C101.767 57.8634 102.124 57.665 102.588 57.665C103.414 57.665 103.827 58.2429 103.827 59.3965V64.0016H105.996V59.18C105.996 58.1292 105.751 57.3319 105.261 56.7851C104.77 56.2384 104.097 55.9654 103.239 55.9654L103.239 55.9639Z" fill="#023E8A"/>
<path d="M112.478 55.9501C112.014 55.9501 111.58 56.0573 111.178 56.2738C110.775 56.4904 110.455 56.7938 110.217 57.1856H110.186V56.1507H108.08V66.8599H110.249V63.0572H110.28C110.776 63.8205 111.519 64.2007 112.51 64.2007C113.502 64.2007 114.276 63.8278 114.865 63.0804C115.454 62.333 115.747 61.3315 115.747 60.0743C115.747 58.8172 115.451 57.8294 114.857 57.0777C114.263 56.326 113.471 55.9494 112.479 55.9494L112.478 55.9501ZM113.021 61.8761C112.711 62.3251 112.298 62.5489 111.782 62.5489C111.265 62.5489 110.889 62.3294 110.589 61.892C110.289 61.4546 110.139 60.8492 110.139 60.0751C110.139 59.3009 110.289 58.6977 110.589 58.2603C110.888 57.8229 111.286 57.6027 111.782 57.6027C112.277 57.6027 112.711 57.8272 113.021 58.2755C113.33 58.7245 113.485 59.3226 113.485 60.0751C113.485 60.8275 113.33 61.4271 113.021 61.8761Z" fill="#023E8A"/>
<path d="M123.987 59.0084C123.987 56.9386 122.862 55.9023 120.611 55.9023C119.537 55.9023 118.711 56.1551 118.133 56.6606C117.555 57.1646 117.244 57.8135 117.203 58.6072H119.309C119.33 58.2357 119.451 57.9453 119.674 57.7352C119.895 57.5238 120.208 57.4173 120.61 57.4173C121.467 57.4173 121.895 57.8801 121.895 58.8078V59.0858C121.245 59.1286 120.589 59.1995 119.929 59.3024C118.834 59.4776 118.052 59.7716 117.582 60.1837C117.112 60.5958 116.878 61.1367 116.878 61.8059C116.878 62.475 117.12 63.0652 117.605 63.5135C118.091 63.9625 118.741 64.1848 119.557 64.1848C120.682 64.1848 121.535 63.7742 122.112 62.9493H122.144C122.144 63.3505 122.18 63.701 122.252 64.0001H124.203C124.058 63.4534 123.986 62.7379 123.986 61.8515V59.0076L123.987 59.0084ZM121.896 60.6942C121.896 61.3938 121.746 61.8935 121.447 62.1933C121.148 62.4917 120.735 62.6401 120.208 62.6401C119.836 62.6401 119.55 62.5503 119.349 62.37C119.148 62.1897 119.047 61.95 119.047 61.6509C119.047 61.3518 119.144 61.1056 119.341 60.9397C119.537 60.7754 119.863 60.6522 120.317 60.5682C120.751 60.4973 121.278 60.4401 121.897 60.3995V60.6935L121.896 60.6942Z" fill="#023E8A"/>
<path d="M130.415 55.9639C129.455 55.9639 128.686 56.3557 128.107 57.1393H128.076V56.15H126.046V64.0002H128.215V59.7963C128.215 59.1076 128.357 58.5782 128.641 58.2132C128.926 57.8468 129.3 57.6636 129.765 57.6636C130.683 57.6636 131.143 58.2415 131.143 59.3951V64.0002H133.312V59.1786C133.312 58.1394 133.053 57.3428 132.537 56.7917C132.021 56.2406 131.314 55.9639 130.415 55.9639Z" fill="#023E8A"/>
<path d="M137.555 56.1507H135.386V64.0008H137.555V56.1507Z" fill="#023E8A"/>
<path d="M137.555 52.9976H135.386V54.8522H137.555V52.9976Z" fill="#023E8A"/>
<path d="M143.662 58.778C143.362 59.7057 143.058 60.8021 142.748 62.0687H142.716C142.469 60.9774 142.18 59.8809 141.849 58.778L141.045 56.1507H138.721L140.952 62.5329C141.199 63.2325 141.324 63.7068 141.324 63.9545C141.324 64.3354 141.192 64.6417 140.929 64.8742C140.666 65.1052 140.317 65.2218 139.883 65.2218C139.553 65.2218 139.274 65.1805 139.047 65.0987V66.8287C139.398 66.9106 139.774 66.9518 140.178 66.9518C141.169 66.9518 141.943 66.7418 142.501 66.3182C143.059 65.8967 143.533 65.1378 143.925 64.0464L146.744 56.1507H144.514L143.662 58.778Z" fill="#023E8A"/>
<path d="M154.227 59.0084C154.227 56.9386 153.102 55.9023 150.851 55.9023C149.777 55.9023 148.951 56.1551 148.373 56.6606C147.795 57.1646 147.484 57.8135 147.443 58.6072H149.549C149.57 58.2357 149.691 57.9453 149.914 57.7352C150.135 57.5238 150.448 57.4173 150.85 57.4173C151.707 57.4173 152.135 57.8801 152.135 58.8078V59.0858C151.485 59.1286 150.829 59.1995 150.169 59.3024C149.074 59.4776 148.292 59.7716 147.822 60.1837C147.352 60.5958 147.118 61.1367 147.118 61.8059C147.118 62.475 147.36 63.0652 147.845 63.5135C148.331 63.9625 148.981 64.1848 149.797 64.1848C150.922 64.1848 151.775 63.7742 152.352 62.9493H152.384C152.384 63.3505 152.42 63.701 152.492 64.0001H154.443C154.298 63.4534 154.226 62.7379 154.226 61.8515V59.0076L154.227 59.0084ZM152.136 60.6942C152.136 61.3938 151.986 61.8935 151.687 62.1933C151.388 62.4917 150.975 62.6401 150.448 62.6401C150.076 62.6401 149.789 62.5503 149.588 62.37C149.387 62.1897 149.286 61.95 149.286 61.6509C149.286 61.3518 149.384 61.1056 149.58 60.9397C149.777 60.7754 150.102 60.6522 150.557 60.5682C150.991 60.4973 151.517 60.4401 152.136 60.3995V60.6935V60.6942Z" fill="#023E8A"/>
<path d="M162.209 60.1445C162.059 59.9852 161.819 59.8317 161.488 59.6818C161.157 59.5333 160.907 59.4334 160.737 59.3878C160.566 59.3421 160.275 59.261 159.862 59.1495C159.191 58.9743 158.741 58.8273 158.515 58.7085C158.288 58.5897 158.174 58.4022 158.174 58.1444C158.174 57.6592 158.531 57.418 159.243 57.418C160.069 57.418 160.482 57.7989 160.482 58.5615H162.557C162.557 57.6961 162.269 57.0371 161.69 56.5837C161.112 56.1304 160.302 55.903 159.259 55.903C158.288 55.903 157.503 56.1275 156.904 56.5758C156.305 57.0248 156.005 57.6027 156.005 58.3138C156.005 58.5101 156.026 58.6962 156.068 58.87C156.109 59.0452 156.15 59.1988 156.191 59.3262C156.233 59.4558 156.312 59.579 156.431 59.6977C156.55 59.8165 156.641 59.9106 156.702 59.9838C156.764 60.0547 156.885 60.1322 157.067 60.2141C157.247 60.2981 157.368 60.356 157.43 60.3929C157.493 60.4291 157.637 60.4798 157.864 60.5479C158.091 60.6145 158.231 60.6551 158.282 60.671C158.334 60.687 158.484 60.7246 158.732 60.7862C159.351 60.952 159.754 61.0751 159.941 61.1577C160.343 61.3235 160.545 61.5813 160.545 61.9304C160.545 62.4358 160.162 62.6886 159.399 62.6886C158.954 62.6886 158.614 62.5792 158.377 62.3634C158.139 62.1469 158.02 61.8435 158.02 61.4517H155.821C155.821 62.3794 156.13 63.0775 156.751 63.5446C157.37 64.0138 158.237 64.2492 159.352 64.2492C160.467 64.2492 161.26 64.0247 161.885 63.5764C162.509 63.1274 162.821 62.5336 162.821 61.7913C162.821 61.4198 162.757 61.0947 162.628 60.8101C162.499 60.5276 162.359 60.306 162.21 60.1453L162.209 60.1445Z" fill="#023E8A"/>
<path d="M166.704 56.1507H164.535V64.0008H166.704V56.1507Z" fill="#023E8A"/>
<path d="M166.704 52.9976H164.535V54.8522H166.704V52.9976Z" fill="#023E8A"/>
</svg>
